<svg id="Artboard_1" data-name="Artboard 1" xmlns="http://www.w3.org/2000/svg" viewBox="0 0 2000 2317.29"><defs><style>.cls-1{fill:#e2d9c3;}.cls-2{fill:#a6a48b;}.cls-3{fill:#f9f0df;}.cls-4{fill:#cdbfab;}.cls-5{fill:#333644;}.cls-6{fill:#c3b6a1;}.cls-7{fill:#201f2f;}.cls-8{fill:#953f2c;}.cls-9{fill:#65251a;}.cls-10{fill:#461711;}.cls-11{fill:#ffc200;}.cls-12{fill:#f09800;}.cls-13{fill:#300b08;}.cls-14{fill:none;}.cls-15{fill:#4e4e4e;}.cls-16{fill:#303030;}</style></defs><title>Honesty</title><circle class="cls-1" cx="2689.69" cy="1426.03" r="771.72" transform="translate(-1951.97 2319.57) rotate(-45)"/><path class="cls-2" d="M1745.14,2192.42l253.72,80H3259a171.88,171.88,0,0,0,133-63.05l332.39-406.25c16.46-20.12,2.15-50.32-23.84-50.32H3509.32l-301.18,396.34Z" transform="translate(-1731.4)"/><path class="cls-3" d="M3270.81,1949.47a239.77,239.77,0,0,1-16.17,39.83c-10.39-135.83-167.86-121.65-167.86-121.65H1762.49v267.92H3204.58l81.51-156.73Z" transform="translate(-1731.4)"/><path class="cls-4" d="M3254.64,1989.3a239.77,239.77,0,0,0,16.17-39.83l-66.23-127.35H1762.49v45.53H3086.78S3244.25,1853.47,3254.64,1989.3Z" transform="translate(-1731.4)"/><path class="cls-5" d="M3429.73,1467.33H2304.16l-551.33,294.18a31.07,31.07,0,0,0,9.66,60.61H3098.27l373-345.55C3447.09,1469.39,3429.73,1467.33,3429.73,1467.33Z" transform="translate(-1731.4)"/><path class="cls-6" d="M1762.49,1929.46H3092.58a10.46,10.46,0,1,0,0-20.91H1762.49Z" transform="translate(-1731.4)"/><path class="cls-6" d="M1762.49,2001.9H3092.58a10.46,10.46,0,1,0,0-20.91H1762.49Z" transform="translate(-1731.4)"/><path class="cls-6" d="M1762.49,2074.33H3092.58a10.46,10.46,0,1,0,0-20.91H1762.49Z" transform="translate(-1731.4)"/><path class="cls-7" d="M3475.46,1477.87h0c-20.94-7.39-45.74-10.54-45.74-10.54l-87.46.36-.1,1.06-216.36-1.06-955.2,177,725.76,177.4h201.9c86.42,0,156.73,70.3,156.73,156.72s-70.3,156.72-156.72,156.73H1762.49a31.09,31.09,0,0,0,0,62.18H3101.75a31.12,31.12,0,0,0,3.22-.17,218.64,218.64,0,0,0,160.77-77.95c75.34-77.75,320.75-335.41,342.45-415.34C3648.65,1555.26,3540.77,1498.3,3475.46,1477.87Z" transform="translate(-1731.4)"/><path class="cls-5" d="M2942.25,1981h59.85s-33.42,227.66-2.72,336.3c0,0-41.72-26.06-43.3-70.15,0,0,6.49,37.79-16.53,70.15C2939.55,2317.29,2902.54,2197.75,2942.25,1981Z" transform="translate(-1731.4)"/><polygon class="cls-7" points="1210.85 1980.99 1200.82 2045.44 1262.83 2044.28 1270.69 1980.99 1210.85 1980.99"/><path class="cls-8" d="M2617.07,67A67,67,0,0,0,2684,133.89V0A67,67,0,0,0,2617.07,67Z" transform="translate(-1731.4)"/><path class="cls-9" d="M2751,67A66.94,66.94,0,0,0,2684,0V133.89A66.94,66.94,0,0,0,2751,67Z" transform="translate(-1731.4)"/><path class="cls-8" d="M2634.56,1061.85v.71l.51-.71Z" transform="translate(-1731.4)"/><path class="cls-9" d="M2684.71,1063.19h-48.82s-.47.67-1.33,2v-2.58c-.23.32-.51.72-.87,1.25-13.92,20.22-126.15,195,0,400.86.46.75.91,1.5,1.38,2.25h49.64Z" transform="translate(-1731.4)"/><path class="cls-9" d="M2635.89,1063.19H2684v-1.34h-48.95l-.51.71v2.58C2635.42,1063.86,2635.89,1063.19,2635.89,1063.19Z" transform="translate(-1731.4)"/><path class="cls-9" d="M2733.48,1062.57v-.72H2733Z" transform="translate(-1731.4)"/><rect class="cls-9" x="952.62" y="1061.85" width="0.69" height="1.34"/><path class="cls-10" d="M2730.81,1466.92H2684v.77h49.46v-1.61l-.51.84Z" transform="translate(-1731.4)"/><path class="cls-10" d="M2735.73,1065.85c-1-1.54-1.78-2.63-2.25-3.28v4.6c-1.7-2.62-2.67-4-2.67-4h-46.1v403.73h46.1q1.35-2.25,2.67-4.49v3.65c.76-1.22,1.51-2.45,2.25-3.67C2856.22,1263.26,2754.25,1093.67,2735.73,1065.85Z" transform="translate(-1731.4)"/><path class="cls-10" d="M2686.09,1061.85h-1.38v1.34h46.1s1,1.36,2.67,4v-4.6l-.51-.72Z" transform="translate(-1731.4)"/><path class="cls-10" d="M2730.81,1466.92H2733l.51-.84v-3.65Q2732.16,1464.67,2730.81,1466.92Z" transform="translate(-1731.4)"/><polygon class="cls-11" points="950.55 1061.86 952.62 1061.86 952.62 986.99 903.15 986.99 903.15 1061.86 903.66 1061.86 950.55 1061.86"/><polygon class="cls-12" points="952.62 1061.86 953.3 1061.86 954.68 1061.86 1001.57 1061.86 1002.08 1061.86 1002.08 986.99 952.62 986.99 952.62 1061.86"/><path class="cls-9" d="M2685.39,1466.92H2250.3a43.67,43.67,0,0,0-43.54,43.54v28.65h478.63Z" transform="translate(-1731.4)"/><path class="cls-10" d="M2258.8,1561.84h-49.38c-21.35,0-38.81,19.59-38.81,43.54v39.34h514.85v-82.88Z" transform="translate(-1731.4)"/><rect class="cls-11" x="475.36" y="1549.81" width="478.63" height="12.03"/><rect class="cls-11" x="475.36" y="1539.11" width="478.63" height="10.7"/><path class="cls-10" d="M3161.28,1539.11v-28.65a43.67,43.67,0,0,0-43.54-43.54H2685.39v72.19Z" transform="translate(-1731.4)"/><path class="cls-13" d="M3199.05,1605.38c0-24-17.46-43.54-38.81-43.54H2685.46v82.88h513.59Z" transform="translate(-1731.4)"/><polygon class="cls-12" points="953.99 1539.11 953.99 1549.81 953.99 1561.84 1429.87 1561.84 1429.87 1549.81 1429.87 1539.11 953.99 1539.11"/><rect class="cls-9" x="952.62" y="359.66" width="49.46" height="627.33"/><polygon class="cls-8" points="952.23 359.66 952.23 255.74 952.23 160.21 903.43 160.21 858.48 359.66 903.15 359.66 903.15 986.99 952.62 986.99 952.62 359.66 952.23 359.66"/><path class="cls-9" d="M2684,255.73h0l11.33,1.32A49.76,49.76,0,0,0,2684,255.73Z" transform="translate(-1731.4)"/><path class="cls-9" d="M2684,359.66V255.73h-.39V359.66Z" transform="translate(-1731.4)"/><path class="cls-9" d="M2733.49,160.22h-49.86v95.53h.39a49.76,49.76,0,0,1,11.33,1.32L2684,255.73V359.66h93.36Z" transform="translate(-1731.4)"/><path class="cls-14" d="M2662.37,259.94A21.68,21.68,0,0,0,2684,281.58V238.29A21.68,21.68,0,0,0,2662.37,259.94Z" transform="translate(-1731.4)"/><path class="cls-11" d="M2662.37,259.94A21.68,21.68,0,0,1,2684,238.29V218.63a41.31,41.31,0,1,0,0,82.61V281.58A21.68,21.68,0,0,1,2662.37,259.94Z" transform="translate(-1731.4)"/><path class="cls-12" d="M2725.33,259.94A41.35,41.35,0,0,0,2684,218.63h0v19.66h0a21.65,21.65,0,0,1,0,43.29h0v19.66h0A41.35,41.35,0,0,0,2725.33,259.94Z" transform="translate(-1731.4)"/><path class="cls-9" d="M2544.94,121.61a19.3,19.3,0,0,0,0,38.6H2684v-38.6Z" transform="translate(-1731.4)"/><path class="cls-9" d="M2545.32,359.66a19.31,19.31,0,0,0,0,38.61H2684V359.66Z" transform="translate(-1731.4)"/><path class="cls-10" d="M2841.63,140.91a19.3,19.3,0,0,0-19.3-19.3H2684v38.6h138.31A19.3,19.3,0,0,0,2841.63,140.91Z" transform="translate(-1731.4)"/><path class="cls-10" d="M2842,379a19.3,19.3,0,0,0-19.3-19.3H2684v38.61h138.7A19.31,19.31,0,0,0,2842,379Z" transform="translate(-1731.4)"/><path class="cls-9" d="M2771.53,398.27s-36.52-1.16-38.05,47.53V398.27Z" transform="translate(-1731.4)"/><path class="cls-8" d="M2596.71,398.27s36.52-1.16,38.05,47.53V398.27Z" transform="translate(-1731.4)"/><path class="cls-8" d="M2684,408.65c-106.29.08-249.78,87.11-364.56,107.25-132.58,23.26-193.06-81.41-246.56-74.22l-1.58.23c-28,4.25-26.31,44.89,2,46.93,24.47,1.76,51.78,12.91,78.54,38.53,85.29,81.67,190.74,64.57,338.06,14,86.29-29.64,153-33.39,194.14-30.58Z" transform="translate(-1731.4)"/><path class="cls-9" d="M2091.59,466a11.32,11.32,0,1,1-11.32-11.32A11.32,11.32,0,0,1,2091.59,466Z" transform="translate(-1731.4)"/><path class="cls-15" d="M1930,1136l150.29-608.61v-69a13.34,13.34,0,0,0-12.95,10.15L1900,1146.13a13.34,13.34,0,0,0,13,16.54h167.33V1136Z" transform="translate(-1731.4)"/><path class="cls-16" d="M2258.11,1157.56a13.36,13.36,0,0,0,2.45-11.43l-167.34-677.6a13.34,13.34,0,0,0-12.95-10.15v69L2230.57,1136h-150.3v26.68H2247.6A13.33,13.33,0,0,0,2258.11,1157.56Z" transform="translate(-1731.4)"/><path class="cls-11" d="M1874.76,1136c-11.59,0-20.38,15-18.27,31.34,14.8,114.2,109.35,202.27,223.78,202.27V1136Z" transform="translate(-1731.4)"/><path class="cls-12" d="M2304.05,1167.33c2.12-16.3-6.68-31.34-18.27-31.34H2080.27V1369.6C2194.7,1369.6,2289.25,1281.53,2304.05,1167.33Z" transform="translate(-1731.4)"/><path class="cls-9" d="M1871.62,1113.43a11.28,11.28,0,0,0,0,22.56h208.65v-22.56Z" transform="translate(-1731.4)"/><path class="cls-10" d="M2300.2,1124.71a11.32,11.32,0,0,0-11.28-11.28H2080.27V1136h208.65A11.31,11.31,0,0,0,2300.2,1124.71Z" transform="translate(-1731.4)"/><path class="cls-9" d="M2685.67,408.65c106.3.08,249.78,87.11,364.56,107.25,132.58,23.26,193.06-81.41,246.56-74.22l1.58.23c28,4.25,26.31,44.89-2,46.93-24.47,1.76-51.78,12.91-78.54,38.53-85.29,81.67-190.74,64.57-338.06,14-86.29-29.64-153-33.39-194.14-30.58Z" transform="translate(-1731.4)"/><path class="cls-9" d="M3278.07,466a11.32,11.32,0,1,0,11.32-11.32A11.32,11.32,0,0,0,3278.07,466Z" transform="translate(-1731.4)"/><path class="cls-15" d="M3439.69,1136l-150.3-608.61v-69a13.34,13.34,0,0,1,13,10.15l167.34,677.6a13.34,13.34,0,0,1-13,16.54H3289.39V1136Z" transform="translate(-1731.4)"/><path class="cls-16" d="M3111.55,1157.56a13.36,13.36,0,0,1-2.45-11.43l167.34-677.6a13.34,13.34,0,0,1,12.95-10.15v69L3139.09,1136h150.3v26.68H3122.06A13.35,13.35,0,0,1,3111.55,1157.56Z" transform="translate(-1731.4)"/><path class="cls-12" d="M3494.9,1136c11.59,0,20.39,15,18.27,31.34-14.8,114.2-109.35,202.27-223.78,202.27V1136Z" transform="translate(-1731.4)"/><path class="cls-11" d="M3065.61,1167.33c-2.12-16.3,6.68-31.34,18.27-31.34h205.51V1369.6C3175,1369.6,3080.41,1281.53,3065.61,1167.33Z" transform="translate(-1731.4)"/><path class="cls-9" d="M3498,1113.43a11.28,11.28,0,1,1,0,22.56H3289.39v-22.56Z" transform="translate(-1731.4)"/><path class="cls-10" d="M3069.46,1124.71a11.32,11.32,0,0,1,11.28-11.28h208.65V1136H3080.74A11.31,11.31,0,0,1,3069.46,1124.71Z" transform="translate(-1731.4)"/><path class="cls-8" d="M2683.63,656.68a119.4,119.4,0,0,1-115.74-148.62h-28.56a71.61,71.61,0,0,1-11.51-.92,158.68,158.68,0,0,0-2.89,30.17c0,87.5,71.2,158.7,158.7,158.7l1.08,0V656.66Z" transform="translate(-1731.4)"/><path class="cls-9" d="M2842.34,537.31a159.37,159.37,0,0,0-2.71-29.25h-40.25a119.39,119.39,0,0,1-114.67,148.6V696C2771.72,695.41,2842.34,624.46,2842.34,537.31Z" transform="translate(-1731.4)"/></svg>