<svg xmlns="http://www.w3.org/2000/svg" viewBox="0 0 3933.25 2767.76"><defs><style>.cls-1{fill:#949494;}.cls-2{fill:#fbf9fa;}.cls-3{fill:#f37159;}.cls-4{fill:#d1d3d4;}.cls-5{fill:#3c444f;}.cls-6{fill:#e8e8e8;}.cls-7{fill:#c6c6c6;}.cls-8{fill:#fefcfe;}.cls-9{fill:#44200e;}.cls-10{fill:#67371b;}.cls-11{fill:#3f4d50;}.cls-12{fill:#ddbf9a;}.cls-13{fill:#42310d;}.cls-14{fill:#252a26;}.cls-15{fill:#d6d6d6;}.cls-16{fill:#5d5d5d;opacity:0.13;}.cls-17{fill:#a1d0d6;opacity:0.19;}</style></defs><title>infographic</title><g id="Layer_1" data-name="Layer 1"><path class="cls-1" d="M2912.06,1738.51V3476.65a108.82,108.82,0,0,1-108.81,108.81H1150.89a108.83,108.83,0,0,1-108.81-108.81V1738.51a108.78,108.78,0,0,1,108.81-108.78H2803.25A108.79,108.79,0,0,1,2912.06,1738.51Z" transform="translate(-335.35 -1248.71)"/><path class="cls-2" d="M3982.16,1248.71l-40,69.23-40-69.23-40,69.23-40-69.23-40,69.23-40-69.23-40,69.23-40-69.23-40,69.23-40-69.23-40,69.23-40-69.23-40,69.23-40-69.23-40,69.23-40-69.23-40,69.23-40-69.23-40,69.23-40-69.23-40,69.23-40-69.23-40,69.23-40-69.23-40,69.23-40-69.23-40,69.23-40-69.23-40,69.23-40-69.23-40,69.23-40-69.23-40,69.23-40-69.23-40,69.23-40-69.23-40,69.23-40-69.23-40,69.23-40-69.23-40,69.23-40-69.23-40,69.23-40-69.23-40,69.23-40-69.23-40,69.23-40-69.23-40,69.23-40-69.23-40,69.23-40-69.23-40,69.23-40-69.23-40,69.23-40-69.23-40,69.23-40-69.23-40,69.23-40-69.23-40,69.23-40-69.23-40,69.23-40-69.23-40,69.23-40-69.23-40,69.23-36.54-63.26V3401.85A183.64,183.64,0,0,1,1126.9,3580.1a236.78,236.78,0,0,0,49.94,5.35H3750.68c130.19,0,235.74-105.54,235.74-235.74V1256.1Z" transform="translate(-335.35 -1248.71)"/><rect class="cls-3" x="1193.59" y="1785.14" width="2368.22" height="148.94"/><rect class="cls-4" x="1196.58" y="1989.2" width="2359.3" height="44.19"/><rect class="cls-4" x="1196.58" y="2086.64" width="2359.3" height="44.2"/><rect class="cls-4" x="2444.69" y="1708.48" width="527.69" height="44.21"/><rect class="cls-1" x="1193.59" y="753.14" width="2362.29" height="82.13"/><rect class="cls-4" x="1193.59" y="886.11" width="1170.15" height="866.57" rx="25.76"/><rect class="cls-4" x="2444.69" y="897.14" width="843.19" height="88.39"/><rect class="cls-4" x="2444.69" y="1033.13" width="843.19" height="88.4"/><rect class="cls-4" x="2444.69" y="1169.14" width="511.92" height="88.39"/><rect class="cls-5" x="2565.42" y="215.02" width="730.37" height="360.91"/><rect class="cls-4" x="2444.69" y="1577.46" width="511.92" height="88.39"/><rect class="cls-4" x="2444.69" y="1312.26" width="843.19" height="88.4"/><rect class="cls-4" x="2444.69" y="1448.26" width="843.19" height="88.39"/><rect class="cls-6" x="1193.59" y="215.02" width="1251.1" height="494.12"/><path class="cls-5" d="M1668,1830.61V1579.13h66.41l52.24,92.16a728.13,728.13,0,0,1,41,86.19h1.12c-3.73-33.21-4.85-67.16-4.85-104.85v-73.5h52.24v251.48h-59.7l-53.73-97c-14.92-26.86-31.34-59.32-43.65-88.8l-1.12.37c1.49,33.21,2.23,68.66,2.23,109.7v75.74Z" transform="translate(-335.35 -1248.71)"/><path class="cls-5" d="M2075.05,1724.27h-92.54V1784h103.36v46.64H1925.42V1579.13h155.22v46.64h-98.13V1678h92.54Z" transform="translate(-335.35 -1248.71)"/><path class="cls-5" d="M2168,1830.61l-59.7-251.48h60.82l19,103.73c5.59,29.85,10.82,62.31,14.92,87.68h.75c4.1-27.24,10.07-57.46,16.41-88.43l21.27-103h60.45l20.15,106c5.59,29.47,9.7,56.34,13.43,84.32h.75c3.73-28,9.32-57.46,14.55-87.31l20.52-103h57.83l-64.92,251.48h-61.57l-21.26-108.2c-4.85-25.37-9-48.88-11.94-77.61h-.75c-4.48,28.36-8.58,52.24-14.55,77.61l-23.88,108.2Z" transform="translate(-335.35 -1248.71)"/><path class="cls-5" d="M2457.48,1772c15.3,7.84,38.81,15.68,63.06,15.68,26.12,0,39.92-10.82,39.92-27.24,0-15.67-11.93-24.63-42.16-35.45-41.79-14.55-69-37.68-69-74.25,0-42.91,35.82-75.74,95.15-75.74,28.36,0,49.25,6,64.18,12.68l-12.69,45.9a119.38,119.38,0,0,0-52.61-11.94c-24.63,0-36.57,11.19-36.57,24.25,0,16,14.18,23.13,46.65,35.45,44.4,16.41,65.29,39.55,65.29,75,0,42.17-32.46,78-101.49,78-28.73,0-57.09-7.47-71.26-15.3Z" transform="translate(-335.35 -1248.71)"/></g><g id="Layer_5" data-name="Layer 5"><path class="cls-7" d="M1448,3460.2a562,562,0,0,1-5.85,80.8c-39.12,269-270.69,475.47-550.42,475.47-8.08,0-16.06-.21-24-.53-296.11-12.54-532.35-256.55-532.35-555.74,0-307.27,249.11-556.27,556.38-556.27S1448,3152.93,1448,3460.2Z" transform="translate(-335.35 -1248.71)"/><path class="cls-8" d="M45.61,2169.49h185a7.52,7.52,0,0,1,7.52,7.52v78.53a.54.54,0,0,1-.54.54H44.52a42.75,42.75,0,0,1-42.75-42.75v0a43.84,43.84,0,0,1,43.84-43.84Z"/><circle class="cls-8" cx="556.34" cy="2211.49" r="333.26"/><path class="cls-9" d="M1166.67,3460.2c0,151.93-123.12,275.05-274.94,275.05A275.24,275.24,0,0,1,616.68,3460.2c0-151.93,123.12-275,275.05-275,107,0,199.67,61.13,245.07,150.44A272.74,272.74,0,0,1,1166.67,3460.2Z" transform="translate(-335.35 -1248.71)"/><path class="cls-10" d="M1166.67,3460.2c0,151.93-123.12,275.05-274.94,275.05A274.19,274.19,0,0,1,678.24,3633.5a272.58,272.58,0,0,1-29.88-124.6c0-151.83,123.12-275.06,274.94-275.06a274.22,274.22,0,0,1,213.5,101.75A272.74,272.74,0,0,1,1166.67,3460.2Z" transform="translate(-335.35 -1248.71)"/></g><g id="Layer_6" data-name="Layer 6"><path class="cls-11" d="M4173.79,2956.29l-614.05,795.79a11,11,0,0,0,1.67,15.4l45.33,35a11,11,0,0,0,15.32-2.29l614.06-795.78a11.19,11.19,0,0,0,1.31-2.17l-61.88-47.74A11.17,11.17,0,0,0,4173.79,2956.29Z" transform="translate(-335.35 -1248.71)"/><path class="cls-12" d="M4237.27,3002.7s34-100.83,30.52-103.66-92.54,55.8-92.54,55.8Z" transform="translate(-335.35 -1248.71)"/><path class="cls-13" d="M4258.93,2935.61s11.43-36,9.43-37.15c-2.48-1.47-33.55,18.36-33.55,18.36Z" transform="translate(-335.35 -1248.71)"/><path class="cls-14" d="M3613.4,3821.21l41.55-53.43-70-54.44-41.55,53.44a44.46,44.46,0,0,0,7.79,62.22h0A44.46,44.46,0,0,0,3613.4,3821.21Z" transform="translate(-335.35 -1248.71)"/></g><g id="Layer_4" data-name="Layer 4"><ellipse class="cls-15" cx="2149.03" cy="3514.23" rx="9.19" ry="32.69" transform="translate(-1829.48 4187.89) rotate(-86.37)"/><ellipse class="cls-15" cx="3125.32" cy="3727.07" rx="8.78" ry="31.26" transform="translate(-1801.68 4083.18) rotate(-69.28)"/><path class="cls-5" d="M3191.74,3702l-763.4-30.39a112.65,112.65,0,0,0-42,6.33l-260,91.66c-11.51,4.06-20.18,14.22-21.25,26.38-1,10.78,3.82,24,26.66,27.77,8.69,1.43,20.83-1.64,28.86-5.24l216.07-98.36a113.37,113.37,0,0,1,55.54-9.57l746.24,60.26Z" transform="translate(-335.35 -1248.71)"/><path class="cls-5" d="M2122.53,3473.12,2836,3746.3a112.83,112.83,0,0,1,36.08,22.37l202.79,186.79c9,8.26,12.93,21,9.12,32.62-3.37,10.28-13,20.57-35.45,15-8.55-2.12-18.49-9.72-24.45-16.2l-159.76-175.61a113.35,113.35,0,0,0-47.27-30.7l-709.5-238.95Z" transform="translate(-335.35 -1248.71)"/><path class="cls-5" d="M3145.77,3786.71c6.14-7.65,31.36-1.59,38.08-8.82,11.83-12.72,12.5-58.25,9.57-70.93-4.71-20.33-28.74-.52-83.94-38.64-151.89-104.92-389.88-83.7-389.88-83.7-14.93-10.37-37.24-19-61.35-24-24-5.45-47.95-6.86-65.85-3.6,0,0-207.86-117.92-389.57-85.36-66,11.84-79.7-16.14-92.41.42-7.92,10.3-26.18,52-20.68,68.5,3.13,9.38,28.61,14.31,31,23.81,14.44,56.79-35.32,158.12,79.75,223.19s265.3,56.19,324.31-27.71c44.06-69.78,58.09-139.82,112.55-128.89,1.87.29,3.89.68,5.39,1s3.46.82,5.26,1.32c54.11,12.63,37.83,82.18,49,163.93,19,100.82,152,171.12,283.67,159.56S3109.1,3832.42,3145.77,3786.71Zm-832.4,10.7a449.58,449.58,0,0,1-44.3-11.82,277.11,277.11,0,0,1-36.59-14.73c-5.41-2.68-10.64-5.53-15.63-8.6-19-11.62-34.66-26-45.15-44.21-6.26-10.8-10.13-23.72-12.22-37.47-4-26-1.5-55,3.53-78.15,7.65-35.3,16.5-62.41,45.71-83.38,25.09-18,58.73-21.82,94.56-19.19,23.71,1.72,48.36,6.28,72.15,11.43,10.93,2.37,22.22,5.19,33.53,8.49q8.31,2.38,16.62,5.13c11.45,3.78,22.8,8,33.78,12.78,44.11,19.07,81.91,46,94,81.39,4.65,13.64-11.43,52.44-17.81,69.18C2504.19,3770.37,2415,3819.45,2313.37,3797.41Zm560.5,121.87a228.29,228.29,0,0,1-47.93-16,207.55,207.55,0,0,1-33-19.24q-6.36-4.56-12.23-9.51c-26.83-22.64-46.08-51.39-56.24-83.1a173.39,173.39,0,0,1-7.94-63.93c1.12-17.9,2.57-60,12.47-70.48,27.6-29.28,78.18-37.33,130.15-34.84a474.83,474.83,0,0,1,76.87,10.41c10.18,2.2,20.47,4.58,30.64,7.23q8.82,2.28,17.49,4.85a328.52,328.52,0,0,1,34.51,12.21c28.54,12.09,52.63,28.43,66.16,52,17.94,31.24,14.77,59.65,7.1,95s-26.48,80.84-55.93,101.85C2994.29,3935.49,2933.59,3932.22,2873.87,3919.28Z" transform="translate(-335.35 -1248.71)"/><path class="cls-16" d="M2553.35,3619.07c-19.49-57.14-106.08-92.2-177.93-107.78-59.74-12.95-125-22.12-166.69,7.77-29.22,21-38.07,48.07-45.73,83.37s-9.37,84.36,8.69,115.62c25.61,44.31,82.1,66.44,141.68,79.36,101.62,22,190.82-27,222.17-109.16C2541.92,3671.52,2558,3632.72,2553.35,3619.07Z" transform="translate(-335.35 -1248.71)"/><path class="cls-16" d="M3092,3803.87c7.67-35.37,10.85-63.78-7.1-95-25.6-44.56-88.94-63.29-148.8-76.28-72-15.61-165.52-19.59-207,24.44-9.91,10.52-11.36,52.58-12.48,70.49-5.49,87.91,55.48,169.7,157.31,191.78,59.7,12.95,120.41,16.21,162.15-13.57C3065.48,3884.7,3084.26,3839.37,3092,3803.87Z" transform="translate(-335.35 -1248.71)"/><path class="cls-17" d="M2216.85,3762.26c-19-11.62-34.66-26-45.15-44.21-6.26-10.8-10.13-23.72-12.22-37.47l143.8-180.72c23.71,1.72,48.36,6.28,72.15,11.43,10.93,2.37,22.22,5.19,33.53,8.49Z" transform="translate(-335.35 -1248.71)"/><path class="cls-17" d="M2269.07,3785.59a277.11,277.11,0,0,1-36.59-14.73l193.1-246c11.45,3.78,22.8,8,33.78,12.78Z" transform="translate(-335.35 -1248.71)"/><path class="cls-17" d="M2780.75,3874.52c-26.83-22.64-46.08-51.39-56.24-83.1l134.68-169.25a474.83,474.83,0,0,1,76.87,10.41c10.18,2.2,20.47,4.58,30.64,7.23Z" transform="translate(-335.35 -1248.71)"/><path class="cls-17" d="M2825.94,3903.27a207.55,207.55,0,0,1-33-19.24l191.21-239.37a328.52,328.52,0,0,1,34.51,12.21Z" transform="translate(-335.35 -1248.71)"/></g></svg>