<?xml version="1.0" encoding="utf-8"?>
<!-- Generator: Adobe Illustrator 24.0.2, SVG Export Plug-In . SVG Version: 6.00 Build 0)  -->
<svg version="1.1" id="Layer_1" xmlns="http://www.w3.org/2000/svg" xmlns:xlink="http://www.w3.org/1999/xlink" x="0px" y="0px"
	 viewBox="0 0 2000 2319.5" style="enable-background:new 0 0 2000 2319.5;" xml:space="preserve">
<style type="text/css">
	.st0{fill:#E2D9C3;}
	.st1{fill:#A6A48B;}
	.st2{fill:#F9F0DF;}
	.st3{fill:#CDBFAB;}
	.st4{fill:#333644;}
	.st5{fill:#C3B6A1;}
	.st6{fill:#201F2F;}
	.st7{fill:#953F2C;}
	.st8{fill:#65251A;}
	.st9{fill:#461711;}
	.st10{fill:#FFC200;}
	.st11{fill:#F09800;}
	.st12{fill:#300B08;}
	.st13{fill:none;}
	.st14{fill:#4E4E4E;}
	.st15{fill:#303030;}
	.st16{opacity:0.1;}
	.st17{fill:#075EDB;}
	.st18{fill:#5EAEF7;}
	.st19{fill:#268FEF;}
	.st20{fill:none;stroke:#FFFFFF;stroke-width:80;stroke-linecap:round;stroke-linejoin:round;}
	.st21{fill:#EFC0AB;}
	.st22{fill:#FFFFFF;stroke:#29336B;stroke-linecap:round;stroke-linejoin:round;stroke-miterlimit:10;}
	.st23{fill:#DEE0EE;}
	.st24{fill:#7FC6B7;}
	.st25{fill:none;stroke:#29336B;stroke-linecap:round;stroke-linejoin:round;stroke-miterlimit:10;}
	.st26{fill:#F3DE35;}
	.st27{fill:#808FE7;}
	.st28{fill:#29336B;}
	.st29{fill:#FFFFFF;}
	.st30{fill:#DF6666;}
	.st31{fill:#A5B1FC;}
	.st32{fill:#F0C677;}
	.st33{fill:#546CFB;}
	.st34{fill:#6B78CB;}
	.st35{opacity:0.5;}
	.st36{fill:#406190;}
	.st37{fill:#ECB096;}
	.st38{fill:#5F82B1;}
	.st39{fill:#DFE3FE;}
	.st40{fill:#DDA899;}
	.st41{fill:#EDB756;stroke:#29336B;stroke-linecap:round;stroke-linejoin:round;stroke-miterlimit:10;}
	.st42{fill:#7FC6B7;stroke:#29336B;stroke-miterlimit:10;}
</style>
<title>infographic</title>
<circle class="st0" cx="958.3" cy="1427.1" r="771.7"/>
<path class="st1" d="M13.7,2193.5l253.7,80h1260.1c51.5,0,100.4-23.2,133-63.1l332.4-406.3c16.5-20.1,2.1-50.3-23.8-50.3h-191.2
	l-301.2,396.3L13.7,2193.5z"/>
<path class="st2" d="M1539.4,1950.6c-4.2,13.7-9.6,27.1-16.2,39.8c-10.4-135.8-167.9-121.7-167.9-121.7H31.1v267.9h1442.1
	l81.5-156.7L1539.4,1950.6z"/>
<path class="st3" d="M1523.2,1990.4c6.6-12.8,12-26.1,16.2-39.8l-66.2-127.3H31.1v45.5h1324.3
	C1355.4,1868.7,1512.9,1854.6,1523.2,1990.4z"/>
<path class="st4" d="M1698.3,1468.4H572.8L21.4,1762.6c-16.3,5.3-25.2,22.9-19.9,39.2c4.2,12.8,16.1,21.5,29.6,21.4h1335.8
	l373-345.5C1715.7,1470.5,1698.3,1468.4,1698.3,1468.4z"/>
<path class="st5" d="M31.1,1930.6h1330.1c5.8,0.2,10.6-4.4,10.8-10.1s-4.4-10.6-10.1-10.8c-0.2,0-0.4,0-0.6,0H31.1V1930.6z"/>
<path class="st5" d="M31.1,2003h1330.1c5.8,0.2,10.6-4.4,10.8-10.1s-4.4-10.6-10.1-10.8c-0.2,0-0.4,0-0.6,0H31.1V2003z"/>
<path class="st5" d="M31.1,2075.4h1330.1c5.8,0.2,10.6-4.4,10.8-10.1s-4.4-10.6-10.1-10.8c-0.2,0-0.4,0-0.6,0H31.1V2075.4z"/>
<path class="st6" d="M1744.1,1479L1744.1,1479c-20.9-7.4-45.7-10.5-45.7-10.5l-87.5,0.4l-0.1,1.1l-216.4-1.1l-955.2,177l725.8,177.4
	h201.9c86.4,0,156.7,70.3,156.7,156.7c0,86.4-70.3,156.7-156.7,156.7H31.1c-17.2,0-31.1,14-31,31.1c0,17.1,13.9,31,31,31h1339.3
	c1.1,0,2.2-0.1,3.2-0.2c62.2-1.9,120.7-30.3,160.8-77.9c75.3-77.8,320.8-335.4,342.4-415.3C1917.3,1556.4,1809.4,1499.4,1744.1,1479
	z"/>
<path class="st4" d="M1210.9,1982.1h59.9c0,0-33.4,227.7-2.7,336.3c0,0-41.7-26.1-43.3-70.1c0,0,6.5,37.8-16.5,70.1
	C1208.2,2318.4,1171.1,2198.8,1210.9,1982.1z"/>
<polygon class="st6" points="1210.9,1982.1 1200.8,2046.5 1262.8,2045.4 1270.7,1982.1 "/>
<path class="st7" d="M885.7,68.1c0.1,36.9,30,66.9,66.9,66.9V1.1C915.6,1.1,885.7,31.1,885.7,68.1z"/>
<path class="st8" d="M1019.6,68.1c0-37-29.9-67-66.9-67c0,0-0.1,0-0.1,0V135C989.6,135,1019.6,105.1,1019.6,68.1
	C1019.6,68.1,1019.6,68.1,1019.6,68.1z"/>
<path class="st7" d="M903.2,1062.9v0.7l0.5-0.7H903.2z"/>
<path class="st8" d="M953.3,1064.3h-48.8c0,0-0.5,0.7-1.3,2v-2.6c-0.2,0.3-0.5,0.7-0.9,1.3c-13.9,20.2-126.1,195,0,400.9
	c0.5,0.8,0.9,1.5,1.4,2.3h49.6L953.3,1064.3z"/>
<path class="st8" d="M904.5,1064.3h48.1v-1.3h-48.9l-0.5,0.7v2.6C904,1065,904.5,1064.3,904.5,1064.3z"/>
<path class="st8" d="M1002.1,1063.7v-0.7h-0.5L1002.1,1063.7z"/>
<rect x="952.6" y="1062.9" class="st8" width="0.7" height="1.3"/>
<path class="st9" d="M999.4,1468h-46.8v0.8h49.5v-1.6l-0.5,0.8H999.4z"/>
<path class="st9" d="M1004.3,1066.9c-1-1.5-1.8-2.6-2.3-3.3v4.6c-1.7-2.6-2.7-4-2.7-4h-46.1V1468h46.1c0.9-1.5,1.8-3,2.7-4.5v3.7
	c0.8-1.2,1.5-2.4,2.3-3.7C1124.8,1264.4,1022.9,1094.8,1004.3,1066.9z"/>
<path class="st9" d="M954.7,1062.9h-1.4v1.3h46.1c0,0,1,1.4,2.7,4v-4.6l-0.5-0.7L954.7,1062.9z"/>
<path class="st9" d="M999.4,1468h2.2l0.5-0.8v-3.7C1001.2,1465,1000.3,1466.5,999.4,1468z"/>
<polygon class="st10" points="950.6,1063 952.6,1063 952.6,988.1 903.2,988.1 903.2,1063 903.7,1063 "/>
<polygon class="st11" points="952.6,1063 953.3,1063 954.7,1063 1001.6,1063 1002.1,1063 1002.1,988.1 952.6,988.1 "/>
<path class="st8" d="M954,1468H518.9c-24,0.1-43.5,19.5-43.5,43.5v28.7H954L954,1468z"/>
<path class="st9" d="M527.4,1562.9H478c-21.4,0-38.8,19.6-38.8,43.5v39.3h514.8v-82.9H527.4z"/>
<rect x="475.4" y="1550.9" class="st10" width="478.6" height="12"/>
<rect x="475.4" y="1540.2" class="st10" width="478.6" height="10.7"/>
<path class="st9" d="M1429.9,1540.2v-28.7c-0.1-24-19.5-43.5-43.5-43.5H954v72.2L1429.9,1540.2z"/>
<path class="st12" d="M1467.7,1606.5c0-24-17.5-43.5-38.8-43.5H954.1v82.9h513.6V1606.5z"/>
<polygon class="st11" points="954,1540.2 954,1550.9 954,1562.9 1429.9,1562.9 1429.9,1550.9 1429.9,1540.2 "/>
<rect x="952.6" y="360.8" class="st8" width="49.5" height="627.3"/>
<polygon class="st7" points="952.2,360.8 952.2,256.8 952.2,161.3 903.4,161.3 858.5,360.8 903.2,360.8 903.2,988.1 952.6,988.1 
	952.6,360.8 "/>
<path class="st8" d="M952.6,256.8L952.6,256.8l11.3,1.3C960.2,257.3,956.4,256.8,952.6,256.8z"/>
<path class="st8" d="M952.6,360.8V256.8h-0.4v103.9H952.6z"/>
<path class="st8" d="M1002.1,161.3h-49.9v95.5h0.4c3.8,0,7.6,0.4,11.3,1.3l-11.3-1.3v103.9h93.4L1002.1,161.3z"/>
<path class="st13" d="M931,261c0,11.9,9.7,21.6,21.6,21.6v-43.3C940.7,239.4,931,249.1,931,261z"/>
<path class="st10" d="M931,261c0-11.9,9.7-21.6,21.6-21.7v-19.7c-22.8-0.4-41.6,17.8-41.9,40.7s17.8,41.6,40.7,41.9
	c0.4,0,0.9,0,1.3,0v-19.7C940.7,282.7,931,273,931,261z"/>
<path class="st11" d="M993.9,261c0-22.8-18.5-41.3-41.3-41.3l0,0v19.7l0,0c12,0.3,21.4,10.2,21.2,22.1c-0.2,11.6-9.6,20.9-21.2,21.2
	l0,0v19.7l0,0C975.4,302.3,993.9,283.8,993.9,261z"/>
<path class="st8" d="M813.5,122.7c-10.7,0-19.3,8.7-19.3,19.3c0,10.6,8.6,19.3,19.3,19.3h139.1v-38.6L813.5,122.7z"/>
<path class="st8" d="M813.9,360.8c-10.7,0.2-19.1,9.1-18.9,19.7c0.2,10.3,8.5,18.6,18.9,18.9h138.7v-38.6H813.9z"/>
<path class="st9" d="M1110.2,142c0-10.7-8.6-19.3-19.3-19.3l0,0H952.6v38.6h138.3C1101.6,161.3,1110.2,152.7,1110.2,142
	C1110.2,142,1110.2,142,1110.2,142z"/>
<path class="st9" d="M1110.6,380.1c0-10.7-8.6-19.3-19.3-19.3l0,0H952.6v38.6h138.7C1102,399.4,1110.6,390.8,1110.6,380.1z"/>
<path class="st8" d="M1040.1,399.4c0,0-36.5-1.2-38,47.5v-47.5H1040.1z"/>
<path class="st7" d="M865.3,399.4c0,0,36.5-1.2,38.1,47.5v-47.5H865.3z"/>
<path class="st7" d="M952.6,409.7C846.3,409.8,702.8,496.9,588,517c-132.6,23.3-193.1-81.4-246.6-74.2l-1.6,0.2
	c-28,4.3-26.3,44.9,2,46.9c24.5,1.8,51.8,12.9,78.5,38.5c85.3,81.7,190.7,64.6,338.1,14c86.3-29.6,153-33.4,194.1-30.6L952.6,409.7z
	"/>
<path class="st8" d="M360.2,467.1c0,6.3-5.1,11.3-11.3,11.3c-6.3,0-11.3-5.1-11.3-11.3s5.1-11.3,11.3-11.3S360.2,460.8,360.2,467.1
	C360.2,467.1,360.2,467.1,360.2,467.1z"/>
<path class="st14" d="M198.6,1137.1l150.3-608.6v-69c-6.1,0-11.5,4.2-12.9,10.1l-167.3,677.6c-1.8,7.2,2.6,14.4,9.8,16.2
	c1.1,0.3,2.2,0.4,3.2,0.4h167.3v-26.7H198.6z"/>
<path class="st15" d="M526.7,1158.7c2.5-3.2,3.4-7.4,2.4-11.4L361.8,469.6c-1.5-6-6.8-10.1-12.9-10.1v69l150.3,608.6H348.9v26.7
	h167.3C520.3,1163.8,524.2,1161.9,526.7,1158.7z"/>
<path class="st10" d="M143.4,1137.1c-11.6,0-20.4,15-18.3,31.3c14.8,114.2,109.3,202.3,223.8,202.3v-233.6H143.4z"/>
<path class="st11" d="M572.7,1168.4c2.1-16.3-6.7-31.3-18.3-31.3H348.9v233.6C463.3,1370.7,557.9,1282.6,572.7,1168.4z"/>
<path class="st8" d="M140.2,1114.5c-6.2,0-11.3,5.1-11.3,11.3s5.1,11.3,11.3,11.3h208.7v-22.6H140.2z"/>
<path class="st9" d="M568.8,1125.8c0-6.2-5.1-11.3-11.3-11.3H348.9v22.6h208.6C563.7,1137.1,568.8,1132,568.8,1125.8z"/>
<path class="st8" d="M954.3,409.7c106.3,0.1,249.8,87.1,364.6,107.3c132.6,23.3,193.1-81.4,246.6-74.2l1.6,0.2
	c28,4.3,26.3,44.9-2,46.9c-24.5,1.8-51.8,12.9-78.5,38.5c-85.3,81.7-190.7,64.6-338.1,14c-86.3-29.6-153-33.4-194.1-30.6
	L954.3,409.7z"/>
<path class="st8" d="M1546.7,467.1c0,6.3,5.1,11.3,11.3,11.3c6.3,0,11.3-5.1,11.3-11.3s-5.1-11.3-11.3-11.3
	S1546.7,460.8,1546.7,467.1C1546.7,467.1,1546.7,467.1,1546.7,467.1z"/>
<path class="st14" d="M1708.3,1137.1L1558,528.5v-69c6.2,0,11.5,4.2,13,10.1l167.3,677.6c1.8,7.2-2.6,14.4-9.8,16.2
	c-1.1,0.3-2.2,0.4-3.2,0.4H1558v-26.7H1708.3z"/>
<path class="st15" d="M1380.2,1158.7c-2.5-3.2-3.4-7.4-2.4-11.4L1545,469.6c1.5-6,6.8-10.1,12.9-10.1v69l-150.3,608.6H1558v26.7
	h-167.3C1386.6,1163.8,1382.7,1161.9,1380.2,1158.7z"/>
<path class="st11" d="M1763.5,1137.1c11.6,0,20.4,15,18.3,31.3c-14.8,114.2-109.4,202.3-223.8,202.3v-233.6H1763.5z"/>
<path class="st10" d="M1334.2,1168.4c-2.1-16.3,6.7-31.3,18.3-31.3H1558v233.6C1443.6,1370.7,1349,1282.6,1334.2,1168.4z"/>
<path class="st8" d="M1766.6,1114.5c6.2,0,11.3,5.1,11.3,11.3s-5.1,11.3-11.3,11.3H1558v-22.6H1766.6z"/>
<path class="st9" d="M1338.1,1125.8c0-6.2,5.1-11.3,11.3-11.3H1558v22.6h-208.6C1343.1,1137.1,1338.1,1132,1338.1,1125.8z"/>
<path class="st7" d="M952.2,657.8c-65.9,0-119.4-53.5-119.4-119.4c0-9.8,1.2-19.6,3.6-29.2h-28.6c-3.9,0-7.7-0.3-11.5-0.9
	c-1.9,9.9-2.9,20-2.9,30.2c0,87.5,71.2,158.7,158.7,158.7h1.1v-39.4L952.2,657.8z"/>
<path class="st8" d="M1110.9,538.4c0-9.8-0.9-19.6-2.7-29.2H1068c16.1,63.9-22.6,128.8-86.5,145c-9.2,2.3-18.6,3.5-28.1,3.6v39.3
	C1040.3,696.5,1110.9,625.6,1110.9,538.4z"/>
<g>
	<g id="Artboard_1">
		<g class="st16">
			<path d="M-3046.3,169.2c0-31.4,4.1-62.7,12.1-93.1c-223.9-38.1-522.1-71.6-686.5-71.6c-159.3,0-444.2,31.4-665.3,68
				c8.7,31.5,13.1,64,13.1,96.7c0,194.4-152.8,353.1-344.9,362.6c23.7,320.7,106.3,756.8,203.7,992.2
				c161.4,390,719.4,732.9,793.4,793.4c73.9-60.5,632-403.4,793.3-793.4c97.6-235.8,180.4-673.1,203.9-994
				C-2905.1,509.9-3046.3,356.1-3046.3,169.2z"/>
			<path d="M-3720.7,186c-107.1,0-290.4,16.4-473.7,41.3c-21.1,199.3-149.5,367.1-327.6,443.1c17,144.5,43,296.3,73.4,433.4
				c31.1,140.2,66.8,265,102.3,350.8c107.5,259.7,453.4,517.6,625.7,639.6c0.1-0.1,0.4-0.2,0.5-0.4V186H-3720.7z"/>
			<path d="M-3224.4,230.4c-189.5-26.4-384.4-44.3-495.8-44.4v1907.8c172.4-122.3,517.7-379.8,625.1-639.2
				c35.6-86,71.3-210.7,102.3-350.8c32.3-146.3,57.1-294.2,74.5-443C-3087.8,579.8-3203.6,417.1-3224.4,230.4z"/>
		</g>
		<path class="st17" d="M-3050.8,164.7c0-31.4,4.1-62.7,12.1-93.1C-3262.5,33.4-3560.7,0-3725.2,0c-159.3,0-444.2,31.4-665.3,68
			c8.7,31.5,13.1,64,13.1,96.7c0,194.4-152.8,353.1-344.9,362.6c23.7,320.7,106.3,756.8,203.7,992.2
			c161.4,390,719.4,732.9,793.4,793.4c73.9-60.5,632-403.4,793.3-793.4c97.6-235.8,180.4-673.1,203.9-994
			C-2909.5,505.5-3050.8,351.6-3050.8,164.7z"/>
		<path class="st18" d="M-3725.2,181.5c-107.1,0-290.4,16.4-473.7,41.3c-21.1,199.3-149.5,367.1-327.6,443.1
			c17,144.5,43,296.3,73.4,433.4c31.1,140.2,66.8,265,102.3,350.8c107.5,259.7,453.4,517.6,625.7,639.6c0.1-0.1,0.4-0.2,0.5-0.4
			V181.5H-3725.2z"/>
		<path class="st19" d="M-3228.9,225.9c-189.5-26.4-384.4-44.3-495.7-44.4v1907.8c172.4-122.2,517.7-379.8,625.1-639.2
			c35.6-86,71.3-210.7,102.3-350.8c32.3-146.3,57.1-294.1,74.5-442.9C-3092.3,575.4-3208,412.7-3228.9,225.9z"/>
		<polyline class="st20" points="-3935,1007.4 -3725.9,1277.5 -3359.4,804 		"/>
	</g>
</g>
<g>
	<path class="st21" d="M-404.6,1800.8l0-1129.2c0-17-13.9-30.9-30.9-30.9l-535.7,0v-34.6V166.2h-1276.8V1942h1202.5l74.3,0.1v-0.1
		v-5.5l535.7,0c17,0,31-13.9,31-30.9L-404.6,1800.8z"/>
	<path class="st21" d="M-389.5,594.7h-230.9c-13.1,0-23.7,10.6-23.7,23.7V726c0,13.1,10.6,23.7,23.7,23.7h25.6
		c0.7,9.6,0.4,26.8-9.1,40.2c0,0,61.9-5.8,78.2-40.2h136.2c13.1,0,23.7-10.6,23.7-23.7V618.4C-365.8,605.3-376.4,594.7-389.5,594.7z
		"/>
	<path class="st21" d="M-2059,1370.7c-70.9,23.6-95.8-1.6-95.8-1.6c-18.1,12-39.8,19-63.2,19c-63.3,0-114.6-51.3-114.6-114.6
		s51.3-114.6,114.6-114.6c63.3,0,114.6,51.3,114.6,114.6c0,18.2-4.2,35.3-11.8,50.6C-2115.2,1324.1-2105.3,1362-2059,1370.7z"/>
	<rect x="-2289.1" y="166.3" class="st22" width="1276.8" height="1775.2"/>
	<text transform="matrix(1 0 0 1 -2050.4285 366.4927)" class="st28" style="font-family:'Asap-SemiBold'; font-size:144.8187px;">DAILY NEWS</text>
	<g>
		<g>
			<rect x="-1691.3" y="536.2" class="st23" width="287.6" height="21.8"/>
			<rect x="-1691.3" y="568.8" class="st23" width="287.6" height="21.8"/>
			<rect x="-1691.3" y="601.4" class="st23" width="287.6" height="21.8"/>
			<rect x="-1691.3" y="634.1" class="st23" width="287.6" height="21.8"/>
			<rect x="-1691.3" y="666.7" class="st23" width="287.6" height="21.8"/>
			<rect x="-1691.3" y="699.4" class="st23" width="173.6" height="21.8"/>
			<rect x="-1691.3" y="732" class="st23" width="287.6" height="21.8"/>
			<rect x="-1691.3" y="764.7" class="st23" width="287.6" height="21.8"/>
			<rect x="-1691.3" y="797.3" class="st23" width="287.6" height="21.8"/>
			<rect x="-1691.3" y="830" class="st23" width="287.6" height="21.8"/>
			<rect x="-1691.3" y="862.6" class="st23" width="287.6" height="21.8"/>
			<rect x="-1691.3" y="895.2" class="st23" width="287.6" height="21.8"/>
			<rect x="-1691.3" y="927.4" class="st23" width="116.5" height="21.8"/>
			<rect x="-1691.3" y="503.7" class="st23" width="287.6" height="21.8"/>
			<rect x="-1691.3" y="471.3" class="st23" width="287.6" height="21.8"/>
		</g>
		<g>
			<rect x="-1374.2" y="536.2" class="st23" width="287.6" height="21.8"/>
			<rect x="-1374.2" y="503.7" class="st23" width="287.6" height="21.8"/>
			<rect x="-1374.2" y="471.3" class="st23" width="287.6" height="21.8"/>
			<rect x="-1374.2" y="568.8" class="st23" width="287.6" height="21.8"/>
			<rect x="-1374.2" y="601.4" class="st23" width="287.6" height="21.8"/>
			<rect x="-1374.2" y="634.1" class="st23" width="287.6" height="21.8"/>
			<rect x="-1374.2" y="666.7" class="st23" width="287.6" height="21.8"/>
			<rect x="-1374.2" y="699.4" class="st23" width="287.6" height="21.8"/>
			<rect x="-1374.2" y="732" class="st23" width="287.6" height="21.8"/>
			<rect x="-1374.2" y="764.7" class="st23" width="230.6" height="21.8"/>
			<rect x="-1374.2" y="797.3" class="st23" width="287.6" height="21.8"/>
			<rect x="-1374.2" y="830" class="st23" width="287.6" height="21.8"/>
			<rect x="-1374.2" y="862.6" class="st23" width="287.6" height="21.8"/>
			<rect x="-1374.2" y="895.2" class="st23" width="287.6" height="21.8"/>
			<rect x="-1374.2" y="927.4" class="st23" width="173.6" height="21.8"/>
		</g>
		<rect x="-2218.1" y="1128.1" class="st23" width="1131.6" height="19"/>
		<rect x="-1451.5" y="982.7" class="st24" width="365" height="113.8"/>
		<rect x="-2218.1" y="982.7" class="st24" width="746.7" height="113.8"/>
		<g>
			<rect x="-1828.5" y="1547.1" class="st23" width="356" height="26.6"/>
			<rect x="-1828.5" y="1587" class="st23" width="356" height="26.6"/>
			<rect x="-1828.5" y="1626.8" class="st23" width="356" height="26.6"/>
			<rect x="-1828.5" y="1666.6" class="st23" width="356" height="26.6"/>
			<rect x="-1828.5" y="1706.5" class="st23" width="356" height="26.6"/>
			<rect x="-1828.5" y="1746.3" class="st23" width="356" height="26.5"/>
			<rect x="-1828.5" y="1786.1" class="st23" width="356" height="26.5"/>
			<rect x="-1828.5" y="1826" class="st23" width="356" height="26.6"/>
			<rect x="-1828.5" y="1865.8" class="st23" width="134.3" height="26.6"/>
			<rect x="-1452.4" y="1547.1" class="st23" width="361.7" height="26.6"/>
			<rect x="-1452.4" y="1587" class="st23" width="361.7" height="26.6"/>
			<rect x="-1452.4" y="1626.8" class="st23" width="361.7" height="26.6"/>
			<rect x="-1452.4" y="1666.6" class="st23" width="361.7" height="26.6"/>
			<rect x="-1452.4" y="1706.5" class="st23" width="361.7" height="26.6"/>
			<rect x="-1452.4" y="1746.3" class="st23" width="361.7" height="26.5"/>
			<rect x="-1452.4" y="1786.1" class="st23" width="361.7" height="26.5"/>
			<rect x="-1452.4" y="1826" class="st23" width="361.7" height="26.6"/>
			<rect x="-1452.4" y="1865.8" class="st23" width="234.1" height="26.6"/>
		</g>
	</g>
	<line class="st25" x1="-2218.1" y1="237" x2="-1086.5" y2="237"/>
	<line class="st25" x1="-2218.1" y1="214.8" x2="-1086.5" y2="214.8"/>
	<line class="st25" x1="-2218.1" y1="391.3" x2="-1086.5" y2="391.3"/>
	<line class="st25" x1="-2218.1" y1="415.1" x2="-1086.5" y2="415.1"/>
	<rect x="-1186.8" y="337.4" class="st23" width="100.3" height="27.9"/>
	<rect x="-2218.1" y="471.3" class="st26" width="485.9" height="485.3"/>
	<rect x="-2216.9" y="1547.1" class="st27" width="365" height="345.2"/>
	<g>
		<rect x="-1455.7" y="1171" class="st27" width="365" height="345.2"/>
		<g>
			<rect x="-1835.1" y="1171" class="st23" width="356" height="26.6"/>
			<rect x="-1835.1" y="1210.8" class="st23" width="356" height="26.6"/>
			<rect x="-1835.1" y="1250.6" class="st23" width="356" height="26.6"/>
			<rect x="-1835.1" y="1290.5" class="st23" width="356" height="26.6"/>
			<rect x="-1835.1" y="1330.3" class="st23" width="356" height="26.6"/>
			<rect x="-1835.1" y="1370.1" class="st23" width="356" height="26.6"/>
			<rect x="-1835.1" y="1410" class="st23" width="356" height="26.6"/>
			<rect x="-1835.1" y="1449.8" class="st23" width="356" height="26.6"/>
			<rect x="-1835.1" y="1489.6" class="st23" width="193.9" height="26.6"/>
			<rect x="-2216.9" y="1171" class="st23" width="361.7" height="26.6"/>
			<rect x="-2216.9" y="1210.8" class="st23" width="361.7" height="26.6"/>
			<rect x="-2216.9" y="1250.6" class="st23" width="361.7" height="26.6"/>
			<rect x="-2216.9" y="1290.5" class="st23" width="361.7" height="26.6"/>
			<rect x="-2216.9" y="1330.3" class="st23" width="361.7" height="26.6"/>
			<rect x="-2216.9" y="1370.1" class="st23" width="361.7" height="26.6"/>
			<rect x="-2216.9" y="1410" class="st23" width="361.7" height="26.6"/>
			<rect x="-2216.9" y="1449.8" class="st23" width="361.7" height="26.6"/>
			<rect x="-2216.9" y="1489.6" class="st23" width="179.9" height="26.6"/>
		</g>
	</g>
	<path class="st23" d="M-1012.3,606.1l-364.3-0.5c-26.7,0-48.5,21.8-48.5,48.5l0,478.5h-214.4c-50.2,0-91.1,40.8-91.1,91.1V1941
		l718.3,0.5V606.1z"/>
	<g>
		<path class="st28" d="M-1390,671.7c0-17,13.9-31,30.9-31l882.4,0c17,0,30.9,13.9,30.9,30.9l0,1129.2h-944.3L-1390,671.7z"/>
		<path class="st29" d="M-1360,1742.8c0,15.5,12.7,28.1,28.2,28.1l826.8,0c15.5,0,28.2-12.7,28.2-28.2L-477,708
			c0-15.5-12.7-28.1-28.1-28.1l-826.9,0c-15.5,0-28.1,12.7-28.1,28.1L-1360,1742.8z"/>
		<path class="st30" d="M-477,708c0-15.5-12.7-28.1-28.1-28.1l-826.9,0c-15.5,0-28.1,12.7-28.1,28.1l0,135.4H-477L-477,708z"/>
		<path class="st31" d="M-476.5,1936l-882.4,0.1c-17,0-31-13.9-31-30.9l0-104.3h944.3l0,104.3C-445.6,1922.1-459.5,1936-476.5,1936z
			"/>
		<path class="st28" d="M-962.6,1863.5c0,24.8,20.1,44.8,44.8,44.8c24.7,0,44.8-20.1,44.8-44.8c0-24.8-20.1-44.8-44.8-44.8
			C-942.5,1818.7-962.6,1838.8-962.6,1863.5z"/>
		<text transform="matrix(1 0 0 1 -1130.5627 810.6816)" class="st29" style="font-family:'OpenSans-Bold'; font-size:146.7053px;">NEWS</text>
		<g>
			<rect x="-809.1" y="1072" class="st32" width="291.1" height="288"/>
			<rect x="-1319" y="1072" class="st23" width="477.9" height="30"/>
			<rect x="-1319" y="966.4" class="st23" width="801" height="60.9"/>
			<rect x="-1319" y="1123.6" class="st23" width="477.9" height="30"/>
			<rect x="-1319" y="1175.2" class="st23" width="477.9" height="30"/>
			<rect x="-1319" y="1226.8" class="st23" width="477.9" height="30"/>
			<rect x="-1319" y="1278.4" class="st23" width="477.9" height="30"/>
			<rect x="-1319" y="1330" class="st23" width="477.9" height="30"/>
			
				<rect x="-1319" y="1408.4" transform="matrix(-1 -1.224647e-16 1.224647e-16 -1 -2346.9661 3104.8228)" class="st33" width="291.1" height="288"/>
			
				<rect x="-995.9" y="1408.4" transform="matrix(-1 -1.224647e-16 1.224647e-16 -1 -1513.8411 2846.8503)" class="st23" width="477.9" height="30"/>
			
				<rect x="-995.9" y="1460" transform="matrix(-1 -1.224647e-16 1.224647e-16 -1 -1513.8411 2950.0388)" class="st23" width="477.9" height="30"/>
			
				<rect x="-995.9" y="1511.6" transform="matrix(-1 -1.224647e-16 1.224647e-16 -1 -1513.8411 3053.228)" class="st23" width="477.9" height="30"/>
			
				<rect x="-995.9" y="1563.2" transform="matrix(-1 -1.224647e-16 1.224647e-16 -1 -1513.8411 3156.417)" class="st23" width="477.9" height="30"/>
			
				<rect x="-995.9" y="1614.8" transform="matrix(-1 -1.224647e-16 1.224647e-16 -1 -1513.8411 3259.6062)" class="st23" width="477.9" height="30"/>
			
				<rect x="-995.9" y="1666.4" transform="matrix(-1 -1.224647e-16 1.224647e-16 -1 -1513.8411 3362.7947)" class="st23" width="477.9" height="30"/>
			<rect x="-1319" y="890.3" class="st24" width="113.2" height="39.3"/>
			<rect x="-1181.4" y="890.3" class="st32" width="113.2" height="39.3"/>
			<rect x="-1043.9" y="890.3" class="st34" width="113.2" height="39.3"/>
			<rect x="-906.3" y="890.3" class="st24" width="113.2" height="39.3"/>
			<rect x="-768.7" y="890.3" class="st32" width="113.2" height="39.3"/>
			<rect x="-631.2" y="890.3" class="st34" width="113.2" height="39.3"/>
		</g>
		<path class="st23" d="M-1096.5,1207.5c0-43.8-35.6-79.4-79.4-79.4h-184.2l0,614.7c0,15.5,12.7,28.1,28.2,28.1l235.4,0V1207.5z"/>
		<g class="st35">
			<polygon class="st29" points="-1126.7,679.9 -1360.1,1024.6 -1360.1,1600.3 -736.7,679.9 			"/>
			<path class="st29" d="M-505.1,679.9l-117.1,0l-731.6,1080.3c5.2,6.5,13.1,10.8,22,10.8l264,0l590.9-872.5l0-190.4
				C-477,692.6-489.6,679.9-505.1,679.9z"/>
			<polygon class="st29" points="-476.9,1356.5 -476.9,1042.2 -970.5,1770.9 -757.6,1770.9 			"/>
		</g>
	</g>
	<g>
		<path class="st28" d="M-1624.5,2153.3c-0.8,0-1.5-0.1-2.3-0.2c-38.5-5.6-68.6-39.6-68.6-77.5v-834.4c0-40.5,33-73.5,73.5-73.5
			h428.9c40.5,0,73.5,33,73.5,73.5v834.4c0,39.7-31.2,72.3-74.2,77.6c-0.6,0.1-1.3,0.1-1.9,0.1H-1624.5z"/>
		<path class="st36" d="M-1624.5,2137.3c-29.1-4.2-54.9-30-54.9-61.7v-834.4c0-31.7,25.8-57.5,57.5-57.5h428.9
			c31.7,0,57.5,25.8,57.5,57.5v834.4c0,31.7-25.8,57.5-60.1,61.7H-1624.5z"/>
		<path class="st29" d="M-1193.1,1206.1H-1298v11.4c0,10.6-8.6,19.3-19.3,19.3H-1488c-10.6,0-19.3-8.6-19.3-19.3v-11.4h-114.7
			c-19.3,0-35,15.7-35,35v834.4c0,19.3,15.7,35,35,35h428.9c19.3,0,35-15.7,35-35v-834.4
			C-1158.1,1221.8-1173.7,1206.1-1193.1,1206.1z"/>
		<g>
			
				<text transform="matrix(1 0 0 1 -1511.0579 1368.1807)" class="st36" style="font-family:'OpenSans-Bold'; font-size:110.2649px;">NEWS</text>
			<g>
				<path class="st36" d="M-1540.4,1312.8h-70.4c-3.2,0-5.7-2.6-5.7-5.7l0,0c0-3.2,2.6-5.7,5.7-5.7h70.4c3.2,0,5.7,2.6,5.7,5.7l0,0
					C-1534.7,1310.3-1537.3,1312.8-1540.4,1312.8z"/>
				<path class="st36" d="M-1540.4,1334.9h-70.4c-3.2,0-5.7-2.6-5.7-5.7l0,0c0-3.2,2.6-5.7,5.7-5.7h70.4c3.2,0,5.7,2.6,5.7,5.7l0,0
					C-1534.7,1332.4-1537.3,1334.9-1540.4,1334.9z"/>
				<path class="st36" d="M-1540.4,1357.1h-70.4c-3.2,0-5.7-2.6-5.7-5.7l0,0c0-3.2,2.6-5.7,5.7-5.7h70.4c3.2,0,5.7,2.6,5.7,5.7l0,0
					C-1534.7,1354.5-1537.3,1357.1-1540.4,1357.1z"/>
			</g>
			<g>
				<g>
					<rect x="-1622.7" y="1748.4" class="st23" width="430.3" height="12.7"/>
					<rect x="-1622.7" y="1777" class="st23" width="430.3" height="12.7"/>
					<rect x="-1622.7" y="1805.7" class="st23" width="430.3" height="12.7"/>
					<rect x="-1622.7" y="1834.4" class="st23" width="430.3" height="12.7"/>
					<rect x="-1622.7" y="1863" class="st23" width="430.3" height="12.7"/>
					<rect x="-1622.7" y="1891.7" class="st23" width="430.3" height="12.7"/>
					<rect x="-1622.7" y="1920.4" class="st23" width="430.3" height="12.7"/>
					<rect x="-1622.7" y="1949" class="st23" width="430.3" height="12.7"/>
					<rect x="-1622.7" y="1977.7" class="st23" width="430.3" height="12.7"/>
					<rect x="-1622.7" y="2006.4" class="st23" width="430.3" height="12.7"/>
					<rect x="-1622.7" y="2035" class="st23" width="430.3" height="12.7"/>
				</g>
				<rect x="-1622.7" y="1690.3" class="st23" width="430.3" height="32.1"/>
			</g>
			<g>
				<rect x="-1622.7" y="1439" class="st37" width="175.8" height="215.4"/>
				<g>
					<rect x="-1419" y="1440" class="st23" width="226.6" height="12.7"/>
					<rect x="-1419" y="1468.7" class="st23" width="226.6" height="12.7"/>
					<rect x="-1419" y="1497.3" class="st23" width="226.6" height="12.7"/>
					<rect x="-1419" y="1526" class="st23" width="226.6" height="12.7"/>
					<rect x="-1419" y="1554.6" class="st23" width="226.6" height="12.7"/>
					<rect x="-1419" y="1583.3" class="st23" width="226.6" height="12.7"/>
					<rect x="-1419" y="1612" class="st23" width="226.6" height="12.7"/>
					<rect x="-1419" y="1640.6" class="st23" width="226.6" height="12.7"/>
				</g>
			</g>
		</g>
		<g>
			<path class="st38" d="M-1356.7,1217.4h-120.6c-3.1,0-5.6-2.5-5.6-5.6l0,0c0-3.1,2.5-5.6,5.6-5.6h120.6c3.1,0,5.6,2.5,5.6,5.6l0,0
				C-1351.1,1214.9-1353.6,1217.4-1356.7,1217.4z"/>
			<path class="st38" d="M-1322.3,1211.8c0,3.1-2.5,5.7-5.7,5.7c-3.1,0-5.7-2.5-5.7-5.7c0-3.1,2.5-5.7,5.7-5.7
				C-1324.8,1206.1-1322.3,1208.7-1322.3,1211.8z"/>
		</g>
		<g class="st35">
			<path class="st29" d="M-1158.1,1241.2c0-13-7.1-24.4-17.7-30.4l-481.2,710.5v154.3c0,16.4,11.3,30.1,26.5,33.9l472.4-697.5
				V1241.2z"/>
			<path class="st29" d="M-1656.9,1832.6l424.3-626.4h-65.3v11.4c0,10.6-8.6,19.3-19.3,19.3h-140.9l-198.8,293.5V1832.6z"/>
			<polygon class="st29" points="-1158.1,1652.5 -1158.1,1487.5 -1580.1,2110.6 -1468.3,2110.6 			"/>
		</g>
		<path class="st39" d="M-1158.1,1854.4v-186h-55.1c-13.1,0-23.7,10.6-23.7,23.7v107.6c0,13.1,10.6,23.7,23.7,23.7h25.6
			c0.7,9.6,0.4,26.8-9.1,40.2C-1196.6,1863.5-1177.7,1861.7-1158.1,1854.4z"/>
	</g>
	<path class="st39" d="M-2190.2,1324.1c7.5-15.3,11.8-32.4,11.8-50.6c0-61.9-49.2-112.3-110.6-114.4v228.8
		c21.9-0.7,42.2-7.5,59.3-18.9c0,0,24.9,25.2,95.8,1.6C-2180.4,1362-2190.2,1324.1-2190.2,1324.1z"/>
	<g>
		<path class="st22" d="M-2076.6,1347.3c-70.9,23.6-95.8-1.6-95.8-1.6c-18.1,12-39.8,19-63.2,19c-63.3,0-114.6-51.3-114.6-114.6
			s51.3-114.6,114.6-114.6c63.3,0,114.6,51.3,114.6,114.6c0,18.2-4.2,35.3-11.8,50.6C-2132.7,1300.6-2122.9,1338.5-2076.6,1347.3z"
			/>
		<g>
			<path class="st28" d="M-2216.8,1295.5V1214c0-1.9-1.6-3.5-3.5-3.5h-41.7c-1.9,0-3.5,1.6-3.5,3.5v13.9c0,1.9,1.6,3.5,3.5,3.5h11.8
				c1.9,0,3.5,1.6,3.5,3.5v60.6c0,1.9-1.6,3.5-3.5,3.5h-11.8c-1.9,0-3.5,1.6-3.5,3.5v13.9c0,1.9,1.6,3.5,3.5,3.5h60.4
				c1.9,0,3.5-1.6,3.5-3.5v-13.9c0-1.9-1.6-3.5-3.5-3.5h-11.7C-2215.2,1299-2216.8,1297.4-2216.8,1295.5z"/>
			<circle class="st28" cx="-2231.8" cy="1188.5" r="15"/>
		</g>
	</g>
	<g>
		<path class="st40" d="M-520.7,671.6c0-17-13.9-30.9-30.9-30.9l-92.4,0V726c0,13.1,10.6,23.7,23.7,23.7h25.6
			c0.7,9.6,0.4,26.8-9.1,40.2c0,0,61.9-5.8,78.2-40.2h5L-520.7,671.6z"/>
		<path class="st41" d="M-377.8,577.1h-230.9c-13.1,0-23.7,10.6-23.7,23.7v107.6c0,13.1,10.6,23.7,23.7,23.7h25.6
			c0.7,9.6,0.4,26.8-9.1,40.2c0,0,61.9-5.8,78.2-40.2h136.2c13.1,0,23.7-10.6,23.7-23.7V600.8C-354.1,587.8-364.7,577.1-377.8,577.1
			z"/>
		<g>
			<path class="st29" d="M-449.2,656.2c0,12.1,9.8,21.9,21.9,21.9c12.1,0,21.9-9.8,21.9-21.9c0-12.1-9.8-21.9-21.9-21.9
				C-439.4,634.2-449.2,644.1-449.2,656.2z"/>
			<path class="st29" d="M-515.1,656.2c0,12.1,9.8,21.9,21.9,21.9c12.1,0,21.9-9.8,21.9-21.9c0-12.1-9.8-21.9-21.9-21.9
				C-505.3,634.2-515.1,644.1-515.1,656.2z"/>
			<path class="st29" d="M-581.1,656.2c0,12.1,9.8,21.9,21.9,21.9c12.1,0,21.9-9.8,21.9-21.9c0-12.1-9.8-21.9-21.9-21.9
				C-571.2,634.2-581.1,644.1-581.1,656.2z"/>
		</g>
	</g>
	<g>
		<path class="st42" d="M-964.6,1650.8h-230.9c-13.1,0-23.7,10.6-23.7,23.7v107.6c0,13.1,10.6,23.7,23.7,23.7h25.6
			c0.7,9.6,0.4,26.8-9.1,40.2c0,0,61.9-5.8,78.2-40.2h136.2c13.1,0,23.7-10.6,23.7-23.7v-107.6
			C-941,1661.4-951.6,1650.8-964.6,1650.8z"/>
		<g>
			<g>
				<path class="st29" d="M-976.3,1695.4h-207.5c-2.9,0-5.2-2.3-5.2-5.2c0-2.9,2.3-5.2,5.2-5.2h207.5c2.9,0,5.2,2.3,5.2,5.2
					C-971.2,1693.1-973.5,1695.4-976.3,1695.4z"/>
			</g>
			<g>
				<path class="st29" d="M-976.3,1721.1h-207.5c-2.9,0-5.2-2.3-5.2-5.2c0-2.9,2.3-5.2,5.2-5.2h207.5c2.9,0,5.2,2.3,5.2,5.2
					C-971.2,1718.8-973.5,1721.1-976.3,1721.1z"/>
			</g>
			<g>
				<path class="st29" d="M-976.3,1746.8h-207.5c-2.9,0-5.2-2.3-5.2-5.2c0-2.9,2.3-5.2,5.2-5.2h207.5c2.9,0,5.2,2.3,5.2,5.2
					C-971.2,1744.4-973.5,1746.8-976.3,1746.8z"/>
			</g>
			<g>
				<path class="st29" d="M-976.3,1772.4h-207.5c-2.9,0-5.2-2.3-5.2-5.2c0-2.9,2.3-5.2,5.2-5.2h207.5c2.9,0,5.2,2.3,5.2,5.2
					C-971.2,1770.1-973.5,1772.4-976.3,1772.4z"/>
			</g>
		</g>
	</g>
</g>
</svg>
