<svg xmlns="http://www.w3.org/2000/svg" viewBox="0 0 2000 2319.5"><defs><style>.cls-1{isolation:isolate;}.cls-2{opacity:0.1;mix-blend-mode:multiply;}.cls-3{fill:#075edb;}.cls-4{fill:#5eaef7;}.cls-5{fill:#268fef;}.cls-6{fill:none;stroke:#fff;stroke-linecap:round;stroke-linejoin:round;stroke-width:80px;}</style></defs><title>Integrity</title><g class="cls-1"><g id="Artboard_1" data-name="Artboard 1"><g class="cls-2"><path d="M1680.84,169.61A364.41,364.41,0,0,1,1693,76.24C1468.56,38,1169.62,4.46,1004.78,4.46c-159.73,0-445.26,31.45-667,68.21a364.64,364.64,0,0,1,13.14,96.94c0,194.91-153.21,354-345.77,363.5,23.71,321.52,106.58,758.72,204.24,994.66,161.77,391,721.21,734.72,795.38,795.39,74.1-60.67,633.59-404.42,795.32-795.39,97.84-236.37,180.84-674.8,204.36-996.46C1822.45,511.21,1680.84,357,1680.84,169.61Z"/><path d="M1004.78,186.46c-107.4,0-291.11,16.41-474.91,41.37C508.75,427.65,380,595.89,201.41,672c17.08,144.87,43.13,297,73.59,434.5,31.15,140.5,66.94,265.61,102.56,351.69,107.72,260.36,454.56,518.85,627.22,641.2.15-.13.38-.25.53-.38V186.46Z"/><path d="M1502.27,231c-190-26.48-385.32-44.42-497-44.49V2099c172.83-122.56,519-380.77,626.63-640.82,35.68-86.19,71.45-211.26,102.59-351.69a4475,4475,0,0,0,74.69-444.08A545.33,545.33,0,0,1,1502.27,231Z"/></g><path class="cls-3" d="M1676.37,165.14a364,364,0,0,1,12.17-93.36C1464.1,33.51,1165.16,0,1000.32,0c-159.73,0-445.27,31.45-667,68.21a364.5,364.5,0,0,1,13.14,96.93c0,194.92-153.21,354-345.77,363.51,23.71,321.52,106.58,758.72,204.23,994.66,161.77,391,721.22,734.71,795.39,795.39,74.1-60.68,633.59-404.43,795.32-795.39,97.83-236.37,180.84-674.81,204.36-996.46C1818,506.75,1676.37,352.49,1676.37,165.14Z"/><path class="cls-4" d="M1000.32,182c-107.4,0-291.12,16.41-474.91,41.36C504.28,423.19,375.58,591.42,197,667.53c17.08,144.88,43.13,297,73.59,434.51,31.15,140.5,66.93,265.61,102.55,351.69,107.73,260.36,454.57,518.84,627.23,641.2.15-.14.38-.25.53-.39V182Z"/><path class="cls-5" d="M1497.8,226.49c-190-26.49-385.31-44.42-496.95-44.49V2094.54c172.82-122.55,519-380.77,626.63-640.81,35.68-86.2,71.45-211.26,102.58-351.69A4472.07,4472.07,0,0,0,1804.76,658,545.36,545.36,0,0,1,1497.8,226.49Z"/><polyline class="cls-6" points="789.97 1009.87 999.57 1280.72 1366.98 805.96"/></g></g></svg>